<?xml version="1.0" encoding="UTF-8" standalone="no"?>
<!-- Created with Inkscape (http://www.inkscape.org/) -->

<svg
   xmlns:dc="http://purl.org/dc/elements/1.1/"
   xmlns:cc="http://creativecommons.org/ns#"
   xmlns:rdf="http://www.w3.org/1999/02/22-rdf-syntax-ns#"
   xmlns:svg="http://www.w3.org/2000/svg"
   xmlns="http://www.w3.org/2000/svg"
   xmlns:sodipodi="http://sodipodi.sourceforge.net/DTD/sodipodi-0.dtd"
   xmlns:inkscape="http://www.inkscape.org/namespaces/inkscape"
   width="210mm"
   height="297mm"
   viewBox="0 0 744.09448819 1052.3622047"
   id="svg2"
   version="1.1"
   inkscape:version="0.91 r13725"
   sodipodi:docname="home.svg">
  <defs
     id="defs4" />
  <sodipodi:namedview
     id="base"
     pagecolor="#ffffff"
     bordercolor="#666666"
     borderopacity="1.0"
     inkscape:pageopacity="0.0"
     inkscape:pageshadow="2"
     inkscape:zoom="0.35"
     inkscape:cx="-112.14286"
     inkscape:cy="520"
     inkscape:document-units="px"
     inkscape:current-layer="layer1"
     showgrid="false"
     inkscape:window-width="1920"
     inkscape:window-height="1018"
     inkscape:window-x="-8"
     inkscape:window-y="-8"
     inkscape:window-maximized="1" />
  <metadata
     id="metadata7">
    <rdf:RDF>
      <cc:Work
         rdf:about="">
        <dc:format>image/svg+xml</dc:format>
        <dc:type
           rdf:resource="http://purl.org/dc/dcmitype/StillImage" />
        <dc:title></dc:title>
      </cc:Work>
    </rdf:RDF>
  </metadata>
  <g
     inkscape:label="Layer 1"
     inkscape:groupmode="layer"
     id="layer1">
    <g
       id="g4137"
       transform="translate(106.52946,256.42449)"
       style="fill:#ffffff;fill-opacity:1">
      <path
         id="path4139"
         d="M 505.582,239.729 272.632,6.754 C 268.309,2.431 262.445,0 256.333,0 250.224,0 244.356,2.431 240.034,6.754 L 7.084,239.729 c -9.008,9.002 -9.008,23.599 0,32.593 9.008,9.005 23.607,9.005 32.598,0 L 256.332,55.657 472.983,272.322 c 4.491,4.503 10.4,6.754 16.299,6.754 5.887,0 11.797,-2.251 16.299,-6.754 8.995,-8.994 8.995,-23.591 10e-4,-32.593 z"
         inkscape:connector-curvature="0"
         style="fill:#ffffff;fill-opacity:1" />
      <path
         id="path4141"
         d="m 416.803,255.15 c -12.731,0 -23.053,10.328 -23.053,23.054 l 0,198.995 -58.95,0 0,-140.03 c 0,-12.73 -10.321,-23.053 -23.053,-23.053 l -110.837,0 c -12.731,0 -23.054,10.322 -23.054,23.053 l 0,140.029 -58.94,0 0,-198.99 c 0,-12.73 -10.322,-23.053 -23.053,-23.053 -12.731,0 -23.054,10.328 -23.054,23.053 l 0,222.043 c 0,12.73 10.322,23.053 23.054,23.053 l 105.047,0 c 12.73,0 23.053,-10.322 23.053,-23.053 l 0,-140.029 64.732,0 0,140.029 c 0,12.73 10.322,23.053 23.053,23.053 l 105.056,0 c 12.73,0 23.053,-10.322 23.053,-23.053 l 0,-222.043 c -0.001,-12.73 -10.323,-23.058 -23.054,-23.058 z"
         inkscape:connector-curvature="0"
         style="fill:#ffffff;fill-opacity:1" />
    </g>
  </g>
</svg>
